<svg xmlns="http://www.w3.org/2000/svg" viewBox="0 0 24 24" fill="none">
    <path d="M12 2L3 6v6c0 5.52 4.48 10 9 10s9-4.48 9-10V6l-9-4zm0 18c-3.86 0-7-3.14-7-7V7.3l7-3.11 7 3.11V13c0 3.86-3.14 7-7 7z" fill="url(#logo-grad)"/>
    <path d="M12 6l-5 2.22V12c0 2.76 2.24 5 5 5s5-2.24 5-5V8.22L12 6zm2.3 5.3l-2.8 2.8a.99.99 0 01-1.4 0l-1.4-1.4a.99.99 0 111.4-1.4l.7.7 2.1-2.1a.99.99 0 111.4 1.4z" fill="url(#logo-grad-inner)"/>
    <defs>
        <linearGradient id="logo-grad" x1="3" y1="2" x2="21" y2="22" gradientUnits="userSpaceOnUse">
            <stop stop-color="#6366f1"/>
            <stop offset="1" stop-color="#06b6d4"/>
        </linearGradient>
        <linearGradient id="logo-grad-inner" x1="7" y1="6" x2="17" y2="17" gradientUnits="userSpaceOnUse">
            <stop stop-color="#06b6d4"/>
            <stop offset="1" stop-color="#6366f1"/>
        </linearGradient>
    </defs>
</svg>
